<svg id="Capa_1" enable-background="new 0 0 504.225 504.225" height="512" viewBox="0 0 504.225 504.225" width="512" xmlns="http://www.w3.org/2000/svg"><g id="XMLID_69_"><path id="XMLID_3194_" d="m66.328 308.487h-30v-48.18c0-36.971 9.021-72.95 26.086-104.046 16.767-30.551 41.412-56.673 71.272-75.541l16.025 25.361c-52.991 33.485-83.384 89.698-83.384 154.226v48.18z" fill="#0040a0"/><path id="XMLID_3193_" d="m464.857 308.487h-30v-48.18c0-60.493-31.992-119.685-83.492-154.477l16.795-24.858c59.645 40.295 96.697 109.012 96.697 179.335z" fill="#143066"/><path id="XMLID_977_" d="m0 297.987h85.085v127.388h-85.085z" fill="#5a69e6"/><path id="XMLID_2012_" d="m113.345 255.184c-26.61 0-48.26 21.649-48.26 48.26v116.475c0 26.61 21.649 48.26 48.26 48.26s48.261-21.649 48.261-48.26v-116.475c-.001-26.611-21.65-48.26-48.261-48.26z" fill="#4dffc3"/><path id="XMLID_70_" d="m419.14 297.987h85.085v127.388h-85.085z" fill="#6b2ee6"/><path id="XMLID_978_" d="m390.88 255.184c-26.611 0-48.261 21.649-48.261 48.26v116.475c0 26.61 21.649 48.26 48.261 48.26 26.61 0 48.26-21.649 48.26-48.26v-116.475c0-26.611-21.65-48.26-48.26-48.26z" fill="#2ee66b"/><path id="XMLID_3965_" d="m367.96 80.53c-3.451-11.137-11.559-20.181-22.242-24.811-30.119-13.054-62.123-19.673-95.123-19.673s-65.004 6.619-95.123 19.673c-10.684 4.63-18.791 13.674-22.242 24.811-3.461 11.168-1.88 23.25 4.337 33.148 7.549 12.02 20.377 18.762 33.748 18.762 5.362 0 10.813-1.085 16.044-3.349 20.006-8.656 41.281-13.045 63.236-13.045s43.23 4.389 63.235 13.045c18.275 7.909 39.217 1.427 49.792-15.413 6.218-9.898 7.799-21.98 4.338-33.148z" fill="#5a69e6"/><path id="XMLID_4011_" d="m367.96 80.53c-3.451-11.137-11.559-20.181-22.242-24.811-30.119-13.054-62.123-19.673-95.123-19.673v80c21.955 0 43.23 4.389 63.235 13.045 18.275 7.909 39.217 1.427 49.792-15.413 6.218-9.898 7.799-21.98 4.338-33.148z" fill="#6b2ee6"/></g></svg>